<?xml version="1.0" encoding="UTF-8"?>
<svg xmlns="http://www.w3.org/2000/svg" xmlns:xlink="http://www.w3.org/1999/xlink" width="1920" height="1080" viewBox="0 0 1920 1080">
<defs>
<g>
<g id="glyph-0-0">
<path d="M 0.203125 -0.597656 L 0.265625 -0.597656 C 0.292969 -0.453125 0.332031 -0.34375 0.382812 -0.265625 C 0.472656 -0.125 0.601562 -0.0546875 0.769531 -0.0546875 C 0.867188 -0.0546875 0.941406 -0.078125 0.996094 -0.132812 C 1.050781 -0.183594 1.078125 -0.253906 1.078125 -0.335938 C 1.078125 -0.390625 1.0625 -0.441406 1.03125 -0.488281 C 1 -0.539062 0.945312 -0.585938 0.863281 -0.632812 L 0.652344 -0.757812 C 0.496094 -0.839844 0.382812 -0.921875 0.308594 -1.007812 C 0.234375 -1.09375 0.199219 -1.191406 0.199219 -1.308594 C 0.199219 -1.449219 0.25 -1.566406 0.347656 -1.65625 C 0.449219 -1.75 0.578125 -1.792969 0.730469 -1.792969 C 0.796875 -1.792969 0.871094 -1.78125 0.953125 -1.757812 C 1.03125 -1.730469 1.078125 -1.71875 1.089844 -1.71875 C 1.113281 -1.71875 1.128906 -1.722656 1.136719 -1.726562 C 1.148438 -1.734375 1.15625 -1.746094 1.164062 -1.757812 L 1.210938 -1.757812 L 1.222656 -1.230469 L 1.164062 -1.230469 C 1.140625 -1.351562 1.105469 -1.445312 1.0625 -1.515625 C 0.984375 -1.640625 0.871094 -1.707031 0.722656 -1.707031 C 0.632812 -1.707031 0.5625 -1.679688 0.511719 -1.625 C 0.460938 -1.570312 0.4375 -1.503906 0.4375 -1.433594 C 0.4375 -1.316406 0.523438 -1.210938 0.699219 -1.121094 L 0.949219 -0.984375 C 1.21875 -0.839844 1.355469 -0.667969 1.355469 -0.472656 C 1.355469 -0.324219 1.296875 -0.203125 1.1875 -0.105469 C 1.074219 -0.0117188 0.925781 0.0351562 0.746094 0.0351562 C 0.671875 0.0351562 0.585938 0.0234375 0.488281 0 C 0.390625 -0.0273438 0.335938 -0.0390625 0.316406 -0.0390625 C 0.300781 -0.0390625 0.289062 -0.0351562 0.277344 -0.0234375 C 0.265625 -0.0117188 0.257812 0 0.25 0.015625 L 0.203125 0.015625 Z "/>
</g>
<g id="glyph-0-1">
<path d="M 0.601562 -1.757812 L 0.601562 -0.542969 C 0.601562 -0.457031 0.613281 -0.386719 0.636719 -0.335938 C 0.683594 -0.238281 0.769531 -0.191406 0.894531 -0.191406 C 0.980469 -0.191406 1.066406 -0.21875 1.148438 -0.277344 C 1.195312 -0.308594 1.242188 -0.351562 1.292969 -0.410156 L 1.292969 -1.449219 C 1.292969 -1.546875 1.273438 -1.609375 1.234375 -1.640625 C 1.195312 -1.671875 1.121094 -1.691406 1.007812 -1.695312 L 1.007812 -1.757812 L 1.621094 -1.757812 L 1.621094 -0.421875 C 1.621094 -0.335938 1.636719 -0.277344 1.667969 -0.242188 C 1.699219 -0.210938 1.761719 -0.199219 1.863281 -0.203125 L 1.863281 -0.148438 C 1.792969 -0.128906 1.742188 -0.113281 1.710938 -0.105469 C 1.675781 -0.0976562 1.621094 -0.078125 1.542969 -0.0546875 C 1.511719 -0.0429688 1.4375 -0.015625 1.328125 0.0273438 C 1.320312 0.0273438 1.316406 0.0273438 1.316406 0.0195312 C 1.316406 0.015625 1.3125 0.0078125 1.3125 0 L 1.3125 -0.304688 C 1.226562 -0.203125 1.148438 -0.128906 1.078125 -0.078125 C 0.972656 -0.00390625 0.855469 0.0351562 0.738281 0.0351562 C 0.628906 0.0351562 0.523438 -0.00390625 0.425781 -0.0820312 C 0.328125 -0.160156 0.277344 -0.289062 0.277344 -0.472656 L 0.277344 -1.457031 C 0.277344 -1.558594 0.253906 -1.625 0.210938 -1.660156 C 0.183594 -1.679688 0.125 -1.695312 0.0351562 -1.707031 L 0.0351562 -1.757812 Z "/>
</g>
<g id="glyph-0-2">
<path d="M 0.0625 -0.0507812 C 0.160156 -0.0585938 0.226562 -0.0742188 0.261719 -0.0976562 C 0.3125 -0.136719 0.335938 -0.207031 0.335938 -0.320312 L 0.335938 -1.300781 C 0.335938 -1.394531 0.324219 -1.457031 0.300781 -1.484375 C 0.273438 -1.515625 0.234375 -1.527344 0.175781 -1.527344 C 0.148438 -1.527344 0.128906 -1.527344 0.117188 -1.523438 C 0.105469 -1.523438 0.0898438 -1.519531 0.0703125 -1.511719 L 0.0703125 -1.578125 L 0.207031 -1.625 C 0.257812 -1.640625 0.335938 -1.671875 0.449219 -1.714844 C 0.5625 -1.757812 0.621094 -1.777344 0.628906 -1.777344 C 0.636719 -1.777344 0.640625 -1.773438 0.640625 -1.769531 C 0.640625 -1.761719 0.640625 -1.75 0.640625 -1.730469 L 0.640625 -1.476562 C 0.765625 -1.589844 0.875 -1.667969 0.964844 -1.710938 C 1.058594 -1.753906 1.152344 -1.777344 1.246094 -1.777344 C 1.378906 -1.777344 1.480469 -1.734375 1.558594 -1.644531 C 1.597656 -1.597656 1.632812 -1.53125 1.660156 -1.449219 C 1.753906 -1.542969 1.835938 -1.613281 1.90625 -1.660156 C 2.027344 -1.738281 2.148438 -1.777344 2.273438 -1.777344 C 2.476562 -1.777344 2.613281 -1.695312 2.683594 -1.527344 C 2.722656 -1.433594 2.742188 -1.285156 2.742188 -1.085938 L 2.742188 -0.296875 C 2.742188 -0.207031 2.761719 -0.144531 2.800781 -0.113281 C 2.839844 -0.0820312 2.914062 -0.0585938 3.015625 -0.0507812 L 3.015625 0 L 2.160156 0 L 2.160156 -0.0546875 C 2.269531 -0.0625 2.34375 -0.0859375 2.375 -0.121094 C 2.410156 -0.15625 2.429688 -0.222656 2.429688 -0.328125 L 2.429688 -1.148438 C 2.429688 -1.269531 2.414062 -1.359375 2.390625 -1.417969 C 2.34375 -1.523438 2.25 -1.574219 2.113281 -1.574219 C 2.03125 -1.574219 1.949219 -1.546875 1.867188 -1.492188 C 1.820312 -1.460938 1.765625 -1.410156 1.695312 -1.339844 L 1.695312 -0.367188 C 1.695312 -0.265625 1.714844 -0.1875 1.75 -0.136719 C 1.785156 -0.0820312 1.863281 -0.0546875 1.980469 -0.0507812 L 1.980469 0 L 1.105469 0 L 1.105469 -0.0507812 C 1.226562 -0.0664062 1.304688 -0.09375 1.335938 -0.136719 C 1.371094 -0.179688 1.386719 -0.285156 1.386719 -0.453125 L 1.386719 -0.984375 C 1.386719 -1.179688 1.375 -1.316406 1.347656 -1.386719 C 1.304688 -1.511719 1.21875 -1.574219 1.082031 -1.574219 C 1.003906 -1.574219 0.929688 -1.554688 0.855469 -1.511719 C 0.78125 -1.46875 0.714844 -1.414062 0.65625 -1.34375 L 0.65625 -0.304688 C 0.65625 -0.210938 0.675781 -0.144531 0.707031 -0.105469 C 0.742188 -0.0703125 0.8125 -0.0507812 0.925781 -0.0507812 L 0.925781 0 L 0.0625 0 Z "/>
</g>
<g id="glyph-0-3">
<rect x="0" y="0" width="0" height="0" mask="url(#mask-0)"/>
</g>
<g id="glyph-0-4">
<path d="M 0.621094 -0.347656 C 0.652344 -0.261719 0.703125 -0.199219 0.769531 -0.15625 C 0.832031 -0.113281 0.910156 -0.09375 1 -0.09375 C 1.136719 -0.09375 1.253906 -0.160156 1.347656 -0.296875 C 1.445312 -0.433594 1.496094 -0.621094 1.496094 -0.867188 C 1.496094 -1.097656 1.445312 -1.273438 1.34375 -1.386719 C 1.242188 -1.503906 1.125 -1.5625 0.992188 -1.5625 C 0.898438 -1.5625 0.8125 -1.53125 0.738281 -1.476562 C 0.660156 -1.417969 0.621094 -1.359375 0.621094 -1.304688 Z M 0.015625 0.785156 C 0.136719 0.777344 0.210938 0.75 0.242188 0.707031 C 0.277344 0.664062 0.292969 0.597656 0.292969 0.503906 L 0.292969 -1.316406 C 0.292969 -1.414062 0.28125 -1.476562 0.257812 -1.503906 C 0.234375 -1.53125 0.191406 -1.542969 0.125 -1.542969 C 0.109375 -1.542969 0.0976562 -1.542969 0.0859375 -1.542969 C 0.0742188 -1.542969 0.0585938 -1.539062 0.0351562 -1.535156 L 0.0351562 -1.597656 L 0.214844 -1.65625 C 0.222656 -1.65625 0.347656 -1.699219 0.597656 -1.789062 C 0.601562 -1.789062 0.609375 -1.785156 0.609375 -1.777344 C 0.613281 -1.773438 0.617188 -1.765625 0.617188 -1.757812 L 0.617188 -1.503906 C 0.699219 -1.585938 0.773438 -1.648438 0.835938 -1.6875 C 0.949219 -1.757812 1.066406 -1.792969 1.1875 -1.792969 C 1.363281 -1.792969 1.511719 -1.71875 1.636719 -1.570312 C 1.761719 -1.421875 1.828125 -1.21875 1.828125 -0.960938 C 1.828125 -0.707031 1.75 -0.476562 1.601562 -0.273438 C 1.449219 -0.0664062 1.257812 0.0390625 1.03125 0.0390625 C 0.960938 0.0390625 0.898438 0.0273438 0.84375 0.0117188 C 0.761719 -0.015625 0.6875 -0.0625 0.621094 -0.136719 L 0.621094 0.484375 C 0.621094 0.613281 0.640625 0.691406 0.683594 0.722656 C 0.726562 0.75 0.816406 0.769531 0.957031 0.78125 L 0.957031 0.847656 L 0.015625 0.847656 Z "/>
</g>
</g>
<image id="source-61" x="0" y="0" width="0" height="0"/>
<mask id="mask-0">
<use xlink:href="#source-61"/>
</mask>
</defs>
<g fill="rgb(54.509804%, 68.627451%, 76.862745%)" fill-opacity="1">
<use xlink:href="#glyph-0-0" x="30" y="22.916992"/>
<use xlink:href="#glyph-0-1" x="32" y="22.916992"/>
<use xlink:href="#glyph-0-2" x="34" y="22.916992"/>
<use xlink:href="#glyph-0-3" x="37" y="22.916992"/>
<use xlink:href="#glyph-0-1" x="38" y="22.916992"/>
<use xlink:href="#glyph-0-4" x="40" y="22.916992"/>
</g>
</svg>
