<?xml version="1.0" encoding="UTF-8"?>
<svg xmlns="http://www.w3.org/2000/svg" xmlns:xlink="http://www.w3.org/1999/xlink" width="1920" height="1080" viewBox="0 0 1920 1080">
<defs>
<g>
<g id="glyph-0-0">
<path d="M 2.066406 -1.949219 C 1.980469 -1.9375 1.914062 -1.925781 1.871094 -1.90625 C 1.832031 -1.886719 1.808594 -1.847656 1.808594 -1.792969 C 1.808594 -1.761719 1.816406 -1.730469 1.824219 -1.699219 C 1.832031 -1.664062 1.847656 -1.628906 1.863281 -1.585938 L 2.257812 -0.554688 L 2.644531 -1.496094 C 2.660156 -1.535156 2.679688 -1.589844 2.699219 -1.65625 C 2.71875 -1.722656 2.730469 -1.769531 2.730469 -1.804688 C 2.730469 -1.855469 2.714844 -1.894531 2.679688 -1.910156 C 2.648438 -1.929688 2.597656 -1.945312 2.535156 -1.953125 L 2.535156 -2.015625 L 3.085938 -2.015625 L 3.085938 -1.953125 C 3.050781 -1.945312 3.019531 -1.929688 2.996094 -1.902344 C 2.972656 -1.875 2.941406 -1.808594 2.898438 -1.707031 L 2.203125 0.0078125 C 2.199219 0.0195312 2.195312 0.0273438 2.191406 0.0351562 C 2.1875 0.0390625 2.179688 0.0429688 2.171875 0.0429688 C 2.152344 0.0351562 2.144531 0.0273438 2.140625 0.0234375 L 1.648438 -1.191406 L 1.078125 0.015625 C 1.074219 0.0234375 1.070312 0.03125 1.066406 0.0351562 C 1.0625 0.0390625 1.054688 0.0429688 1.046875 0.0429688 C 1.03125 0.0351562 1.019531 0.0273438 1.019531 0.0234375 L 0.367188 -1.578125 C 0.296875 -1.753906 0.25 -1.855469 0.226562 -1.886719 C 0.203125 -1.917969 0.160156 -1.9375 0.0898438 -1.949219 L 0.0898438 -2.015625 L 0.894531 -2.015625 L 0.894531 -1.949219 C 0.828125 -1.941406 0.777344 -1.929688 0.742188 -1.914062 C 0.707031 -1.894531 0.6875 -1.855469 0.6875 -1.796875 C 0.6875 -1.753906 0.71875 -1.652344 0.777344 -1.488281 C 0.8125 -1.394531 0.855469 -1.28125 0.910156 -1.144531 L 1.15625 -0.53125 L 1.546875 -1.367188 L 1.550781 -1.394531 C 1.550781 -1.421875 1.535156 -1.476562 1.503906 -1.554688 C 1.472656 -1.632812 1.445312 -1.703125 1.414062 -1.765625 C 1.386719 -1.832031 1.351562 -1.875 1.316406 -1.902344 C 1.28125 -1.925781 1.226562 -1.941406 1.160156 -1.949219 L 1.160156 -2.015625 L 2.066406 -2.015625 Z "/>
</g>
<g id="glyph-1-0">
<path d="M 0.324219 0.640625 L 0.324219 0.378906 C 0.417969 0.210938 0.550781 0.0546875 0.71875 -0.09375 L 0.871094 -0.230469 C 1.097656 -0.429688 1.207031 -0.617188 1.207031 -0.789062 C 1.207031 -1.003906 1.089844 -1.113281 0.855469 -1.113281 C 0.714844 -1.113281 0.554688 -1.0625 0.371094 -0.960938 L 0.371094 -1.21875 C 0.554688 -1.292969 0.738281 -1.332031 0.917969 -1.332031 C 1.109375 -1.332031 1.261719 -1.285156 1.375 -1.1875 C 1.492188 -1.089844 1.550781 -0.960938 1.550781 -0.796875 C 1.550781 -0.597656 1.417969 -0.386719 1.148438 -0.167969 L 1.035156 -0.0742188 C 0.84375 0.0820312 0.730469 0.234375 0.695312 0.378906 L 1.539062 0.378906 L 1.539062 0.640625 Z "/>
</g>
</g>
</defs>
<g fill="rgb(76.862745%, 65.882353%, 42.352941%)" fill-opacity="1">
<use xlink:href="#glyph-0-0" x="30" y="24.296875"/>
</g>
<g fill="rgb(76.862745%, 65.882353%, 42.352941%)" fill-opacity="1">
<use xlink:href="#glyph-1-0" x="33" y="24.296875"/>
</g>
</svg>
